<svg id="eiVZQUA3rvb1" xmlns="http://www.w3.org/2000/svg" xmlns:xlink="http://www.w3.org/1999/xlink" viewBox="0 0 1080 1080" shape-rendering="geometricPrecision" text-rendering="geometricPrecision"><defs><filter id="eiVZQUA3rvb3-filter" x="-150%" width="400%" y="-150%" height="400%"><feGaussianBlur id="eiVZQUA3rvb3-filter-drop-shadow-0-blur" in="SourceAlpha" stdDeviation="2,2"/><feOffset id="eiVZQUA3rvb3-filter-drop-shadow-0-offset" dx="2" dy="6" result="tmp"/><feFlood id="eiVZQUA3rvb3-filter-drop-shadow-0-flood" flood-color="rgba(44,24,6,0.4)"/><feComposite id="eiVZQUA3rvb3-filter-drop-shadow-0-composite" operator="in" in2="tmp"/><feMerge id="eiVZQUA3rvb3-filter-drop-shadow-0-merge" result="result"><feMergeNode id="eiVZQUA3rvb3-filter-drop-shadow-0-merge-node-1"/><feMergeNode id="eiVZQUA3rvb3-filter-drop-shadow-0-merge-node-2" in="SourceGraphic"/></feMerge></filter><radialGradient id="eiVZQUA3rvb3-fill" cx="0" cy="0" r="0.67864" spreadMethod="pad" gradientUnits="objectBoundingBox" gradientTransform="matrix(0.704299 -0.709903 0.709903 0.704299 0 1)"><stop id="eiVZQUA3rvb3-fill-0" offset="0%" stop-color="#705a50"/><stop id="eiVZQUA3rvb3-fill-1" offset="100%" stop-color="#503b31"/></radialGradient><filter id="eiVZQUA3rvb5-filter" x="-150%" width="400%" y="-150%" height="400%"><feGaussianBlur id="eiVZQUA3rvb5-filter-drop-shadow-0-blur" in="SourceAlpha" stdDeviation="6,4"/><feOffset id="eiVZQUA3rvb5-filter-drop-shadow-0-offset" dx="8" dy="8" result="tmp"/><feFlood id="eiVZQUA3rvb5-filter-drop-shadow-0-flood" flood-color="rgba(0,0,0,0.3)"/><feComposite id="eiVZQUA3rvb5-filter-drop-shadow-0-composite" operator="in" in2="tmp"/><feMerge id="eiVZQUA3rvb5-filter-drop-shadow-0-merge" result="result"><feMergeNode id="eiVZQUA3rvb5-filter-drop-shadow-0-merge-node-1"/><feMergeNode id="eiVZQUA3rvb5-filter-drop-shadow-0-merge-node-2" in="SourceGraphic"/></feMerge></filter><filter id="eiVZQUA3rvb9-filter" x="-150%" width="400%" y="-150%" height="400%"><feGaussianBlur id="eiVZQUA3rvb9-filter-drop-shadow-0-blur" in="SourceAlpha" stdDeviation="8,8"/><feOffset id="eiVZQUA3rvb9-filter-drop-shadow-0-offset" dx="8" dy="12" result="tmp"/><feFlood id="eiVZQUA3rvb9-filter-drop-shadow-0-flood" flood-color="rgba(44,24,6,0.6)"/><feComposite id="eiVZQUA3rvb9-filter-drop-shadow-0-composite" operator="in" in2="tmp"/><feMerge id="eiVZQUA3rvb9-filter-drop-shadow-0-merge" result="result"><feMergeNode id="eiVZQUA3rvb9-filter-drop-shadow-0-merge-node-1"/><feMergeNode id="eiVZQUA3rvb9-filter-drop-shadow-0-merge-node-2" in="SourceGraphic"/></feMerge></filter><filter id="eiVZQUA3rvb10-filter" x="-150%" width="400%" y="-150%" height="400%"><feGaussianBlur id="eiVZQUA3rvb10-filter-drop-shadow-0-blur" in="SourceAlpha" stdDeviation="8,8"/><feOffset id="eiVZQUA3rvb10-filter-drop-shadow-0-offset" dx="8" dy="12" result="tmp"/><feFlood id="eiVZQUA3rvb10-filter-drop-shadow-0-flood" flood-color="rgba(44,24,6,0.3)"/><feComposite id="eiVZQUA3rvb10-filter-drop-shadow-0-composite" operator="in" in2="tmp"/><feMerge id="eiVZQUA3rvb10-filter-drop-shadow-0-merge" result="result"><feMergeNode id="eiVZQUA3rvb10-filter-drop-shadow-0-merge-node-1"/><feMergeNode id="eiVZQUA3rvb10-filter-drop-shadow-0-merge-node-2" in="SourceGraphic"/></feMerge></filter><filter id="eiVZQUA3rvb12-filter" x="-150%" width="400%" y="-150%" height="400%"><feGaussianBlur id="eiVZQUA3rvb12-filter-drop-shadow-0-blur" in="SourceAlpha" stdDeviation="8,8"/><feOffset id="eiVZQUA3rvb12-filter-drop-shadow-0-offset" dx="4" dy="6" result="tmp"/><feFlood id="eiVZQUA3rvb12-filter-drop-shadow-0-flood" flood-color="rgba(44,24,6,0.6)"/><feComposite id="eiVZQUA3rvb12-filter-drop-shadow-0-composite" operator="in" in2="tmp"/><feMerge id="eiVZQUA3rvb12-filter-drop-shadow-0-merge" result="result"><feMergeNode id="eiVZQUA3rvb12-filter-drop-shadow-0-merge-node-1"/><feMergeNode id="eiVZQUA3rvb12-filter-drop-shadow-0-merge-node-2" in="SourceGraphic"/></feMerge></filter><filter id="eiVZQUA3rvb13-filter" x="-150%" width="400%" y="-150%" height="400%"><feGaussianBlur id="eiVZQUA3rvb13-filter-drop-shadow-0-blur" in="SourceAlpha" stdDeviation="8,8"/><feOffset id="eiVZQUA3rvb13-filter-drop-shadow-0-offset" dx="4" dy="6" result="tmp"/><feFlood id="eiVZQUA3rvb13-filter-drop-shadow-0-flood" flood-color="rgba(44,24,6,0.3)"/><feComposite id="eiVZQUA3rvb13-filter-drop-shadow-0-composite" operator="in" in2="tmp"/><feMerge id="eiVZQUA3rvb13-filter-drop-shadow-0-merge" result="result"><feMergeNode id="eiVZQUA3rvb13-filter-drop-shadow-0-merge-node-1"/><feMergeNode id="eiVZQUA3rvb13-filter-drop-shadow-0-merge-node-2" in="SourceGraphic"/></feMerge></filter><filter id="eiVZQUA3rvb15-filter" x="-150%" width="400%" y="-150%" height="400%"><feGaussianBlur id="eiVZQUA3rvb15-filter-drop-shadow-0-blur" in="SourceAlpha" stdDeviation="5,5"/><feOffset id="eiVZQUA3rvb15-filter-drop-shadow-0-offset" dx="4" dy="6" result="tmp"/><feFlood id="eiVZQUA3rvb15-filter-drop-shadow-0-flood" flood-color="rgba(44,24,6,0.5)"/><feComposite id="eiVZQUA3rvb15-filter-drop-shadow-0-composite" operator="in" in2="tmp"/><feMerge id="eiVZQUA3rvb15-filter-drop-shadow-0-merge" result="result"><feMergeNode id="eiVZQUA3rvb15-filter-drop-shadow-0-merge-node-1"/><feMergeNode id="eiVZQUA3rvb15-filter-drop-shadow-0-merge-node-2" in="SourceGraphic"/></feMerge></filter><filter id="eiVZQUA3rvb16-filter" x="-150%" width="400%" y="-150%" height="400%"><feGaussianBlur id="eiVZQUA3rvb16-filter-drop-shadow-0-blur" in="SourceAlpha" stdDeviation="5,5"/><feOffset id="eiVZQUA3rvb16-filter-drop-shadow-0-offset" dx="4" dy="6" result="tmp"/><feFlood id="eiVZQUA3rvb16-filter-drop-shadow-0-flood" flood-color="rgba(44,24,6,0.3)"/><feComposite id="eiVZQUA3rvb16-filter-drop-shadow-0-composite" operator="in" in2="tmp"/><feMerge id="eiVZQUA3rvb16-filter-drop-shadow-0-merge" result="result"><feMergeNode id="eiVZQUA3rvb16-filter-drop-shadow-0-merge-node-1"/><feMergeNode id="eiVZQUA3rvb16-filter-drop-shadow-0-merge-node-2" in="SourceGraphic"/></feMerge></filter><filter id="eiVZQUA3rvb18-filter" x="-150%" width="400%" y="-150%" height="400%"><feGaussianBlur id="eiVZQUA3rvb18-filter-drop-shadow-0-blur" in="SourceAlpha" stdDeviation="5,5"/><feOffset id="eiVZQUA3rvb18-filter-drop-shadow-0-offset" dx="8" dy="10" result="tmp"/><feFlood id="eiVZQUA3rvb18-filter-drop-shadow-0-flood" flood-color="rgba(44,24,6,0.6)"/><feComposite id="eiVZQUA3rvb18-filter-drop-shadow-0-composite" operator="in" in2="tmp"/><feMerge id="eiVZQUA3rvb18-filter-drop-shadow-0-merge" result="result"><feMergeNode id="eiVZQUA3rvb18-filter-drop-shadow-0-merge-node-1"/><feMergeNode id="eiVZQUA3rvb18-filter-drop-shadow-0-merge-node-2" in="SourceGraphic"/></feMerge></filter><filter id="eiVZQUA3rvb19-filter" x="-150%" width="400%" y="-150%" height="400%"><feGaussianBlur id="eiVZQUA3rvb19-filter-drop-shadow-0-blur" in="SourceAlpha" stdDeviation="5,5"/><feOffset id="eiVZQUA3rvb19-filter-drop-shadow-0-offset" dx="8" dy="10" result="tmp"/><feFlood id="eiVZQUA3rvb19-filter-drop-shadow-0-flood" flood-color="rgba(44,24,6,0.3)"/><feComposite id="eiVZQUA3rvb19-filter-drop-shadow-0-composite" operator="in" in2="tmp"/><feMerge id="eiVZQUA3rvb19-filter-drop-shadow-0-merge" result="result"><feMergeNode id="eiVZQUA3rvb19-filter-drop-shadow-0-merge-node-1"/><feMergeNode id="eiVZQUA3rvb19-filter-drop-shadow-0-merge-node-2" in="SourceGraphic"/></feMerge></filter></defs><g transform="matrix(1.040534 0 0 1.329638-21.869798-188.839346)"><path d="M801.801987,297.519694c19.927632,9.534905,87.412093,60.887196,87.412093,122.994916c1.571299.392825-6.300096,75.224416.250235,165.864025.578349,19.957345,5.992289,39.083134,5.923009,83.98716s-23.136082,91.993932-126.173244,109.119585l-42.632633,5.019344c-21.620457,0-55.814402,29.965725-128.05963,35.541159-55.311706,0-135.358751-35.541159-164.051346-35.541159L308.664477,779.48538c-66.27417,0-102.541622-62.007569-117.878547-120-15.336925-57.792995-7.779842-68.883401,0-174.48792c0-36.830402-25.449196-122.338935,15.336925-138.025905c71.141106-27.361964,70.02652-45.477978,136.804239-53.401761s246.764948,3.420781,268.695163.000001s45.129991-26.009491,91.689442-19.091565s78.562656,13.506559,98.490288,23.041464Z" transform="matrix(1.426871 0 0 1.456806-238.525156-256.215318)" filter="url(#eiVZQUA3rvb3-filter)" fill="url(#eiVZQUA3rvb3-fill)" stroke-width="0"/></g><g transform="translate(10.125406-150.960894)"><path d="M-30.294067,0C-24.764763,-24.434936,-17.750831,-11.840387,0,-30.294067s28.692429,0,30.294067,30.294067c.096557,63.691816-31.928328,53.353662-38.139883,42.823282s-29.653476-4.174828-22.448251-42.823282Z" transform="matrix(1.414909-.555421 0.355282 0.905063 188.874593 211.151957)" filter="url(#eiVZQUA3rvb5-filter)" fill="#503b31" stroke-width="0"/><path d="M-30.294067,0C-24.764763,-24.434936,-17.750831,-11.840387,0,-30.294067s28.692429,0,30.294067,30.294067c.096557,63.691816-31.928328,53.353662-38.139883,42.823282s-29.653476-4.174828-22.448251-42.823282Z" transform="matrix(1.414909-.555421 0.355282 0.905063 188.874593 211.151957)" fill="#503b31" stroke-width="0"/></g><g transform="translate(91.715185 118.752194)"><g transform="translate(0 0.000001)"><path d="M-73.352442,-35.117275C-45.673753,-58.924071,-37.23223,-88.000284,0,-67.937161c8.776429,4.729305,62.785877,0,67.937161,67.937161C74.156287,67.937161,45.019611,79.988246,0,67.937161c-26.666167-7.138139-54.434791-3.989988-67.937153-26.255908-6.418281-10.583995-32.984-41.078311-5.415289-76.798528Z" transform="matrix(.807668 0 0 0.768056 897.041567 869.907928)" filter="url(#eiVZQUA3rvb9-filter)" fill="#503b31" stroke-width="0"/><path d="M-73.352442,-35.117275C-45.673753,-58.924071,-37.23223,-88.000284,0,-67.937161c8.776429,4.729305,62.785877,0,67.937161,67.937161C74.156287,67.937161,45.019611,79.988246,0,67.937161c-26.666167-7.138139-54.434791-3.989988-67.937153-26.255908-6.418281-10.583995-32.984-41.078311-5.415289-76.798528Z" transform="matrix(.807668 0 0 0.768056 897.041567 869.907928)" filter="url(#eiVZQUA3rvb10-filter)" fill="#503b31" stroke-width="0"/></g><g transform="translate(.000001 0)"><path d="M-27.240504,0c0-15.044515-13.811043-24.828454,14.810087-24.779012c11.86063.020489,21.15194,10.338264,27.761921,9.083793s20.821441,7.238734,20.821441,15.695219c0,27.780979-26.243739,27.283935-41.312382,27.240504s-25.285015-7.536372-22.081067-27.240504Z" transform="matrix(.807668 0 0 0.768056 781.727842 894.474881)" filter="url(#eiVZQUA3rvb12-filter)" fill="#503b31" stroke-width="0"/><path d="M-27.240504,0c0-15.044515-13.811043-24.828454,14.810087-24.779012c11.86063.020489,21.15194,10.338264,27.761921,9.083793s20.821441,7.238734,20.821441,15.695219c0,27.780979-26.243739,27.283935-41.312382,27.240504s-25.285015-7.536372-22.081067-27.240504Z" transform="matrix(.807668 0 0 0.768056 781.727842 894.474881)" filter="url(#eiVZQUA3rvb13-filter)" fill="#503b31" stroke-width="0"/></g><g transform="translate(.000001 0.000001)"><path d="M-24.674324,0C-20.431333,-13.142671,-18.262693,-16.826824,0,-22.153422c5.871944,0,6.297544-2.340445,15.174746,6.013284C19.469718,-12.098433,25.298678,-14.138394,22.153422,0c-.721247,3.743466,1.659836,11.375727-2.040626,15.334895C16.069701,19.660652,6.388183,22.153422,0,22.153422C-23.731431,26.2878,-26.346619,14.339177,-24.674324,0Z" transform="matrix(.497415 0 0 0.447924 840.946036 935.254416)" filter="url(#eiVZQUA3rvb15-filter)" fill="#503b31" stroke-width="0"/><path d="M-24.674324,0C-20.431333,-13.142671,-18.262693,-16.826824,0,-22.153422c5.871944,0,6.297544-2.340445,15.174746,6.013284C19.469718,-12.098433,25.298678,-14.138394,22.153422,0c-.721247,3.743466,1.659836,11.375727-2.040626,15.334895C16.069701,19.660652,6.388183,22.153422,0,22.153422C-23.731431,26.2878,-26.346619,14.339177,-24.674324,0Z" transform="matrix(.497415 0 0 0.447924 840.946036 935.254423)" filter="url(#eiVZQUA3rvb16-filter)" fill="#503b31" stroke-width="0"/></g></g><g transform="translate(-87.17702 189.763425)"><path d="M-24.779012,0C-10.451983,-15.135145,-18.603334,-28.798396,0,-24.779012c11.233442,0,24.779012,14.266167,24.779012,24.779012s.000001,20.626784-24.779012,24.779012C-24.779012,35.273958,-32.141164,15.589441,-24.779012,0Z" transform="matrix(.984847 0.173426-.173426 0.984847 311.506278 837.565532)" filter="url(#eiVZQUA3rvb18-filter)" fill="#503b31" stroke-width="0"/><path d="M-24.779012,0C-10.451983,-15.135145,-18.603334,-28.798396,0,-24.779012c11.233442,0,24.779012,14.266167,24.779012,24.779012s.000001,20.626784-24.779012,24.779012C-24.779012,35.273958,-32.141164,15.589441,-24.779012,0Z" transform="matrix(.984847 0.173426-.173426 0.984847 311.506278 837.565532)" filter="url(#eiVZQUA3rvb19-filter)" fill="#503b31" stroke-width="0"/></g><path d="" fill="none" stroke="#3f5787" stroke-width="2.16"/></svg>
