<svg id="visual" viewBox="0 0 960 300" width="960" height="300" xmlns="http://www.w3.org/2000/svg" xmlns:xlink="http://www.w3.org/1999/xlink" version="1.1"><rect x="0" y="0" width="960" height="300" fill="#d7d6d6"></rect><path d="M0 54L20 49C40 44 80 34 120 37.2C160 40.3 200 56.7 240 72.2C280 87.7 320 102.3 360 97.3C400 92.3 440 67.7 480 67.8C520 68 560 93 600 105C640 117 680 116 720 115.7C760 115.3 800 115.7 840 116C880 116.3 920 116.7 940 116.8L960 117L960 301L940 301C920 301 880 301 840 301C800 301 760 301 720 301C680 301 640 301 600 301C560 301 520 301 480 301C440 301 400 301 360 301C320 301 280 301 240 301C200 301 160 301 120 301C80 301 40 301 20 301L0 301Z" fill="#53402c"></path><path d="M0 91L20 101.2C40 111.3 80 131.7 120 144.3C160 157 200 162 240 163.5C280 165 320 163 360 151.5C400 140 440 119 480 115.3C520 111.7 560 125.3 600 126.2C640 127 680 115 720 118C760 121 800 139 840 146.7C880 154.3 920 151.7 940 150.3L960 149L960 301L940 301C920 301 880 301 840 301C800 301 760 301 720 301C680 301 640 301 600 301C560 301 520 301 480 301C440 301 400 301 360 301C320 301 280 301 240 301C200 301 160 301 120 301C80 301 40 301 20 301L0 301Z" fill="#453324"></path><path d="M0 206L20 199C40 192 80 178 120 173.3C160 168.7 200 173.3 240 166.2C280 159 320 140 360 135.3C400 130.7 440 140.3 480 141.7C520 143 560 136 600 135.7C640 135.3 680 141.7 720 149.2C760 156.7 800 165.3 840 169.3C880 173.3 920 172.7 940 172.3L960 172L960 301L940 301C920 301 880 301 840 301C800 301 760 301 720 301C680 301 640 301 600 301C560 301 520 301 480 301C440 301 400 301 360 301C320 301 280 301 240 301C200 301 160 301 120 301C80 301 40 301 20 301L0 301Z" fill="#37271c"></path><path d="M0 205L20 209.8C40 214.7 80 224.3 120 229.3C160 234.3 200 234.7 240 228C280 221.3 320 207.7 360 207.2C400 206.7 440 219.3 480 217.2C520 215 560 198 600 198.7C640 199.3 680 217.7 720 220.3C760 223 800 210 840 207.5C880 205 920 213 940 217L960 221L960 301L940 301C920 301 880 301 840 301C800 301 760 301 720 301C680 301 640 301 600 301C560 301 520 301 480 301C440 301 400 301 360 301C320 301 280 301 240 301C200 301 160 301 120 301C80 301 40 301 20 301L0 301Z" fill="#291c14"></path><path d="M0 283L20 282C40 281 80 279 120 278.3C160 277.7 200 278.3 240 274.8C280 271.3 320 263.7 360 261C400 258.3 440 260.7 480 254.5C520 248.3 560 233.7 600 225.8C640 218 680 217 720 222.5C760 228 800 240 840 249.7C880 259.3 920 266.7 940 270.3L960 274L960 301L940 301C920 301 880 301 840 301C800 301 760 301 720 301C680 301 640 301 600 301C560 301 520 301 480 301C440 301 400 301 360 301C320 301 280 301 240 301C200 301 160 301 120 301C80 301 40 301 20 301L0 301Z" fill="#1d1009"></path></svg>