<svg id="visual" viewBox="0 0 960 180" width="960" height="180" xmlns="http://www.w3.org/2000/svg" xmlns:xlink="http://www.w3.org/1999/xlink" version="1.1"><rect x="0" y="0" width="960" height="180" fill="transparent"></rect><path d="M0 75L16 73.5C32 72 64 69 96 67.2C128 65.3 160 64.7 192 68.2C224 71.7 256 79.3 288 77.5C320 75.7 352 64.3 384 58.7C416 53 448 53 480 51.3C512 49.7 544 46.3 576 51.7C608 57 640 71 672 72C704 73 736 61 768 54.3C800 47.7 832 46.3 864 45.7C896 45 928 45 944 45L960 45L960 181L944 181C928 181 896 181 864 181C832 181 800 181 768 181C736 181 704 181 672 181C640 181 608 181 576 181C544 181 512 181 480 181C448 181 416 181 384 181C352 181 320 181 288 181C256 181 224 181 192 181C160 181 128 181 96 181C64 181 32 181 16 181L0 181Z" fill="#53402c"></path><path d="M0 70L16 75.3C32 80.7 64 91.3 96 96.7C128 102 160 102 192 104.2C224 106.3 256 110.7 288 113C320 115.3 352 115.7 384 110.5C416 105.3 448 94.7 480 93.5C512 92.3 544 100.7 576 103.3C608 106 640 103 672 97.5C704 92 736 84 768 84.5C800 85 832 94 864 98C896 102 928 101 944 100.5L960 100L960 181L944 181C928 181 896 181 864 181C832 181 800 181 768 181C736 181 704 181 672 181C640 181 608 181 576 181C544 181 512 181 480 181C448 181 416 181 384 181C352 181 320 181 288 181C256 181 224 181 192 181C160 181 128 181 96 181C64 181 32 181 16 181L0 181Z" fill="#402f21"></path><path d="M0 100L16 100C32 100 64 100 96 103C128 106 160 112 192 117.8C224 123.7 256 129.3 288 128.2C320 127 352 119 384 115.2C416 111.3 448 111.7 480 111C512 110.3 544 108.7 576 109.3C608 110 640 113 672 116.7C704 120.3 736 124.7 768 123.7C800 122.7 832 116.3 864 111.5C896 106.7 928 103.3 944 101.7L960 100L960 181L944 181C928 181 896 181 864 181C832 181 800 181 768 181C736 181 704 181 672 181C640 181 608 181 576 181C544 181 512 181 480 181C448 181 416 181 384 181C352 181 320 181 288 181C256 181 224 181 192 181C160 181 128 181 96 181C64 181 32 181 16 181L0 181Z" fill="#2e1f17"></path><path d="M0 151L16 151.3C32 151.7 64 152.3 96 151.2C128 150 160 147 192 147.7C224 148.3 256 152.7 288 150.7C320 148.7 352 140.3 384 139.7C416 139 448 146 480 149.3C512 152.7 544 152.3 576 151.3C608 150.3 640 148.7 672 147.3C704 146 736 145 768 145.3C800 145.7 832 147.3 864 145.5C896 143.7 928 138.3 944 135.7L960 133L960 181L944 181C928 181 896 181 864 181C832 181 800 181 768 181C736 181 704 181 672 181C640 181 608 181 576 181C544 181 512 181 480 181C448 181 416 181 384 181C352 181 320 181 288 181C256 181 224 181 192 181C160 181 128 181 96 181C64 181 32 181 16 181L0 181Z" fill="#1d1009"></path></svg>