<svg id="visual" viewBox="0 0 960 180" width="960" height="180" xmlns="http://www.w3.org/2000/svg" xmlns:xlink="http://www.w3.org/1999/xlink" version="1.1"><rect x="0" y="0" width="960" height="180" fill="#432214"></rect><path d="M0 104L22.8 101.3C45.7 98.7 91.3 93.3 137 87.5C182.7 81.7 228.3 75.3 274 71C319.7 66.7 365.3 64.3 411.2 58.8C457 53.3 503 44.7 548.8 38.8C594.7 33 640.3 30 686 28.7C731.7 27.3 777.3 27.7 823 36C868.7 44.3 914.3 60.7 937.2 68.8L960 77L960 181L937.2 181C914.3 181 868.7 181 823 181C777.3 181 731.7 181 686 181C640.3 181 594.7 181 548.8 181C503 181 457 181 411.2 181C365.3 181 319.7 181 274 181C228.3 181 182.7 181 137 181C91.3 181 45.7 181 22.8 181L0 181Z" fill="#53402c"></path><path d="M0 88L22.8 89C45.7 90 91.3 92 137 93.2C182.7 94.3 228.3 94.7 274 99.5C319.7 104.3 365.3 113.7 411.2 107.7C457 101.7 503 80.3 548.8 80.8C594.7 81.3 640.3 103.7 686 111C731.7 118.3 777.3 110.7 823 103.3C868.7 96 914.3 89 937.2 85.5L960 82L960 181L937.2 181C914.3 181 868.7 181 823 181C777.3 181 731.7 181 686 181C640.3 181 594.7 181 548.8 181C503 181 457 181 411.2 181C365.3 181 319.7 181 274 181C228.3 181 182.7 181 137 181C91.3 181 45.7 181 22.8 181L0 181Z" fill="#402f21"></path><path d="M0 97L22.8 101.3C45.7 105.7 91.3 114.3 137 118.7C182.7 123 228.3 123 274 126.7C319.7 130.3 365.3 137.7 411.2 133.7C457 129.7 503 114.3 548.8 107.7C594.7 101 640.3 103 686 108.5C731.7 114 777.3 123 823 127.5C868.7 132 914.3 132 937.2 132L960 132L960 181L937.2 181C914.3 181 868.7 181 823 181C777.3 181 731.7 181 686 181C640.3 181 594.7 181 548.8 181C503 181 457 181 411.2 181C365.3 181 319.7 181 274 181C228.3 181 182.7 181 137 181C91.3 181 45.7 181 22.8 181L0 181Z" fill="#2e1f17"></path><path d="M0 142L22.8 144.2C45.7 146.3 91.3 150.7 137 153.3C182.7 156 228.3 157 274 152C319.7 147 365.3 136 411.2 130.2C457 124.3 503 123.7 548.8 123.8C594.7 124 640.3 125 686 129.2C731.7 133.3 777.3 140.7 823 142.5C868.7 144.3 914.3 140.7 937.2 138.8L960 137L960 181L937.2 181C914.3 181 868.7 181 823 181C777.3 181 731.7 181 686 181C640.3 181 594.7 181 548.8 181C503 181 457 181 411.2 181C365.3 181 319.7 181 274 181C228.3 181 182.7 181 137 181C91.3 181 45.7 181 22.8 181L0 181Z" fill="#1d1009"></path></svg>