<svg width="1440" height="116" viewBox="0 0 1440 116" fill="none" xmlns="http://www.w3.org/2000/svg">
<g id="SVG waves">
<path id="Vector 1" d="M261.119 104.448C141.023 105.216 43.4991 64.1386 0.488159 43.504V3.84906H1440.49V30.5474C1440.49 43.504 1422.82 72.8723 1344.09 92.4512C1054.39 164.498 853.565 43.504 724.031 43.504C520.189 43.504 411.239 103.488 261.119 104.448Z" fill="#29150D"/>
<path id="Vector 2" d="M161.043 87.3798C107.543 106.197 42.1192 98.0716 4.49805 87.3798H0.0429077V0H1440.04V111.5C1440.04 111.5 1405.04 77 1342.39 77C1276.25 77 1198.04 14.399 1040.04 14.399C882.05 14.399 836.543 54.2243 755.932 68.5623C571.774 101.317 429.043 42.4743 340.614 42.4743C262.87 42.4743 214.543 68.5623 161.043 87.3798Z" fill="#120906"/>
</g>
</svg>
