<svg width="51" height="52" viewBox="0 0 51 52" fill="none" xmlns="http://www.w3.org/2000/svg">
<path d="M10.4872 9.61084H39.3992C40.3792 9.61084 41.262 10.5054 41.262 11.4984V40.7942C41.262 41.7872 40.3792 42.6818 39.3992 42.6818H10.4872C9.50715 42.6818 8.62433 41.7872 8.62433 40.7942V11.4984C8.62433 10.5054 9.50715 9.61084 10.4872 9.61084ZM31.8019 28.1801H36.3101L36.5061 23.8107H31.8019V20.5836C31.8019 19.3427 32.0465 18.6468 33.6146 18.6468H36.3587L36.4575 14.5745C36.4575 14.5745 35.2328 14.3759 33.4688 14.3759C29.1566 14.3759 27.2451 17.1072 27.2451 20.0371V23.8107H24.0604V28.1801H27.2451V40.2953H31.8019V28.1801Z" fill="black"/>
</svg>
