<svg width="51" height="52" viewBox="0 0 51 52" fill="none" xmlns="http://www.w3.org/2000/svg">
<path fill-rule="evenodd" clip-rule="evenodd" d="M31.1104 12.0645H19.0677C14.6337 12.0645 11.0392 15.7066 11.0392 20.1995V32.4021C11.0392 36.8949 14.6337 40.5372 19.0677 40.5372H31.1104C35.5444 40.5372 39.1389 36.8949 39.1389 32.4021V20.1995C39.1389 15.7066 35.5444 12.0645 31.1104 12.0645Z" stroke="black" stroke-width="1.5" stroke-linecap="round" stroke-linejoin="round"/>
<path fill-rule="evenodd" clip-rule="evenodd" d="M25.0891 32.4021C21.7635 32.4021 19.0677 29.6705 19.0677 26.3008C19.0677 22.931 21.7635 20.1995 25.0891 20.1995C28.4147 20.1995 31.1104 22.931 31.1104 26.3008C31.1104 27.9188 30.476 29.4708 29.3468 30.615C28.2176 31.7592 26.6859 32.4021 25.0891 32.4021Z" stroke="black" stroke-width="1.5" stroke-linecap="round" stroke-linejoin="round"/>
<path d="M33.1175 16.1319C32.009 16.1319 31.1104 17.0425 31.1104 18.1657C31.1104 19.2889 32.009 20.1995 33.1175 20.1995C34.226 20.1995 35.1247 19.2889 35.1247 18.1657C35.1247 17.0425 34.226 16.1319 33.1175 16.1319Z" fill="black"/>
<path d="M33.1175 17.1489C32.5633 17.1489 32.114 17.6041 32.114 18.1657C32.114 18.7273 32.5633 19.1826 33.1175 19.1826C33.6718 19.1826 34.1211 18.7273 34.1211 18.1657C34.1211 17.6041 33.6718 17.1489 33.1175 17.1489Z" stroke="black" stroke-linecap="round"/>
</svg>
