<svg width="41" height="41" viewBox="0 0 41 41" fill="none" xmlns="http://www.w3.org/2000/svg">
<path d="M20.5 8.96875C16.6473 8.96875 13.5134 12.1027 13.5134 15.9554C13.5134 16.5896 13.5979 17.2174 13.7658 17.8235C13.8311 18.0618 13.9105 18.2963 13.9989 18.5205L14.2091 18.9958L20.5 30.6206L26.7999 18.9792L27.0049 18.5141C27.0831 18.3167 27.1664 18.072 27.2343 17.8247C27.4021 17.2187 27.4867 16.5896 27.4867 15.9567C27.4867 12.1027 24.3527 8.96875 20.5 8.96875ZM20.5 19.6723C18.4052 19.6723 16.7075 17.9747 16.7075 15.8798C16.7075 13.785 18.4052 12.0873 20.5 12.0873C22.5949 12.0873 24.2925 13.785 24.2925 15.8798C24.2925 17.9747 22.5949 19.6723 20.5 19.6723Z" fill="#B09986"/>
<path d="M20.5 0C9.17759 0 0 9.17759 0 20.5C0 31.8224 9.17759 41 20.5 41C31.8224 41 41 31.8224 41 20.5C41 9.17759 31.8224 0 20.5 0ZM28.4681 18.1656C28.3861 18.4603 28.2887 18.7485 28.1772 19.0291L27.9517 19.5429L20.5 33.3125L13.0585 19.5621L12.8074 18.992C12.701 18.7229 12.6088 18.4474 12.5306 18.1656C12.3359 17.4622 12.2308 16.7203 12.2308 15.9554C12.2321 11.389 15.9336 7.6875 20.5 7.6875C25.0664 7.6875 28.7679 11.389 28.7679 15.9554C28.7679 16.7203 28.6628 17.4622 28.4681 18.1656Z" fill="#B09986"/>
</svg>
