<svg width="53" height="53" viewBox="0 0 53 53" fill="none" xmlns="http://www.w3.org/2000/svg">
<path d="M46.375 22.0833H32.2417C31.0048 22.0833 30.3864 22.0833 29.9141 21.8426C29.4985 21.6309 29.1608 21.2931 28.949 20.8776C28.7083 20.4052 28.7083 19.7868 28.7083 18.55V11.0417M22.0833 11.0417H39.3083C41.7819 11.0417 43.0188 11.0417 43.9635 11.5231C44.7945 11.9465 45.4702 12.6221 45.8936 13.4532C46.375 14.398 46.375 15.6348 46.375 18.1083V39.3083C46.375 41.7819 46.375 43.0188 45.8936 43.9635C45.4702 44.7945 44.7945 45.4702 43.9635 45.8936C43.0188 46.375 41.7819 46.375 39.3083 46.375H13.6917C11.2181 46.375 9.98131 46.375 9.03654 45.8936C8.20548 45.4702 7.52982 44.7945 7.10639 43.9635C6.625 43.0188 6.625 41.7819 6.625 39.3083V18.1083C6.625 15.6348 6.625 14.398 7.10639 13.4532C7.52982 12.6221 8.20548 11.9465 9.03654 11.5231C9.92334 11.0712 11.0674 11.0435 13.25 11.0418M22.0833 11.0417V10.1583C22.0833 8.92156 22.0833 8.30316 21.8426 7.83077C21.6309 7.41525 21.2931 7.07742 20.8776 6.86569C20.4052 6.625 19.7868 6.625 18.55 6.625H16.7833C15.5466 6.625 14.9282 6.625 14.4558 6.86569C14.0403 7.07742 13.7024 7.41525 13.4907 7.83077C13.25 8.30316 13.25 8.92156 13.25 10.1583V11.0418M22.0833 11.0417V34.0083C22.0833 35.2452 22.0833 35.8636 21.8426 36.3359C21.6309 36.7515 21.2931 37.0892 20.8776 37.301C20.4052 37.5417 19.7868 37.5417 18.55 37.5417H16.7833C15.5466 37.5417 14.9282 37.5417 14.4558 37.301C14.0403 37.0892 13.7024 36.7515 13.4907 36.3359C13.25 35.8636 13.25 35.2452 13.25 34.0083V11.0418M30.9167 30.9167H30.9387V30.8946H30.9167V30.9167ZM30.9167 37.5417H30.9387V37.5637H30.9167V37.5417ZM37.5417 37.5417H37.5637V37.5637H37.5417V37.5417ZM37.5417 30.9167H37.5637V30.9387H37.5417V30.9167Z" stroke="#DAC3B0" stroke-width="2" stroke-linecap="round" stroke-linejoin="round"/>
</svg>
