<svg width="42" height="42" viewBox="0 0 42 42" fill="none" xmlns="http://www.w3.org/2000/svg">
<g clip-path="url(#clip0_11_133)">
<path fill-rule="evenodd" clip-rule="evenodd" d="M13.4734 37.7181C28.9654 37.7181 37.4391 24.9128 37.4391 13.8094C37.4391 13.4449 37.4391 13.0831 37.4145 12.7227C39.0628 11.5349 40.4854 10.0602 41.6164 8.3728C40.081 9.05269 38.4491 9.49856 36.7802 9.69514C38.5373 8.6446 39.8531 6.99414 40.4833 5.04665C38.8288 6.02551 37.0204 6.71635 35.1339 7.08703C31.9439 3.70399 26.6089 3.54008 23.2157 6.72242C21.0295 8.77435 20.0996 11.8337 20.7791 14.7519C14.0071 14.412 7.69697 11.2215 3.41906 5.97289C1.18363 9.81257 2.327 14.7228 6.02809 17.1884C4.68765 17.1495 3.37595 16.7894 2.20384 16.1382V16.2449C2.20589 20.2443 5.03251 23.688 8.96146 24.4805C7.7216 24.8184 6.42016 24.8674 5.15978 24.6237C6.2621 28.0477 9.42537 30.3929 13.0279 30.4605C10.0453 32.7991 6.36064 34.069 2.56717 34.0649C1.89798 34.0629 1.22879 34.0239 0.561646 33.9441C4.41464 36.4097 8.89577 37.7181 13.4734 37.712" fill="black"/>
</g>
<defs>
<clipPath id="clip0_11_133">
<rect width="41.0548" height="41.5998" fill="white" transform="translate(0.561646 0.278809)"/>
</clipPath>
</defs>
</svg>
