<svg width="980" height="30" viewBox="0 0 980 30" fill="none" xmlns="http://www.w3.org/2000/svg">
<path d="M0.0464449 21.367L19.367 27.9536L25.9536 8.633L6.633 2.04645L0.0464449 21.367ZM979.067 11.7662L961.766 0.933154L950.933 18.2338L968.234 29.0668L979.067 11.7662ZM13 15C14.1028 17.2436 14.1013 17.2444 14.0998 17.2451C14.0995 17.2453 14.0981 17.2459 14.0974 17.2463C14.096 17.2469 14.095 17.2474 14.0944 17.2477C14.0932 17.2483 14.0935 17.2481 14.0955 17.2472C14.0995 17.2453 14.1098 17.2404 14.1268 17.2325C14.1608 17.2168 14.2211 17.1893 14.3093 17.1508C14.4856 17.0738 14.7731 16.9529 15.1828 16.7943C16.0024 16.4771 17.3106 16.0092 19.1966 15.4404C22.9693 14.3024 29.0479 12.7622 38.1435 11.2146C56.3384 8.11876 86.5681 5 134.5 5V0C86.3629 0 55.8427 3.13124 37.3048 6.28542C28.034 7.86283 21.7505 9.44757 17.7527 10.6534C15.7535 11.2564 14.3243 11.7651 13.3779 12.1315C12.9047 12.3146 12.5519 12.4623 12.3088 12.5684C12.1873 12.6215 12.0931 12.6642 12.025 12.6958C11.9909 12.7115 11.9633 12.7246 11.9421 12.7347C11.9315 12.7398 11.9224 12.7441 11.915 12.7477C11.9112 12.7495 11.9079 12.7512 11.9049 12.7526C11.9034 12.7533 11.9015 12.7543 11.9008 12.7546C11.8989 12.7555 11.8972 12.7564 13 15ZM134.5 5C204.143 5 341.575 10.6216 476.49 16.2478C611.336 21.8712 743.682 27.5 803 27.5V22.5C743.818 22.5 611.622 16.8788 476.698 11.2522C341.842 5.6284 204.275 0 134.5 0V5ZM803 27.5C862.319 27.5 902.901 24.9971 928.68 22.4882C941.569 21.2338 950.76 19.9777 956.742 19.0318C959.733 18.5589 961.923 18.1635 963.372 17.8846C964.096 17.7452 964.636 17.6349 964.998 17.5586C965.179 17.5204 965.316 17.4907 965.409 17.4702C965.456 17.4599 965.492 17.4519 965.517 17.4463C965.529 17.4434 965.539 17.4412 965.546 17.4396C965.55 17.4387 965.553 17.4381 965.555 17.4376C965.556 17.4373 965.558 17.437 965.558 17.4369C965.559 17.4366 965.56 17.4364 965 15C964.44 12.5636 964.44 12.5634 964.441 12.5633C964.441 12.5634 964.441 12.5633 964.441 12.5634C964.44 12.5634 964.439 12.5637 964.438 12.5641C964.434 12.5649 964.428 12.5663 964.419 12.5682C964.402 12.5722 964.373 12.5785 964.334 12.5872C964.255 12.6045 964.133 12.631 963.967 12.666C963.634 12.7362 963.123 12.8407 962.427 12.9747C961.034 13.2427 958.9 13.6286 955.961 14.0932C950.084 15.0223 940.993 16.2662 928.195 17.5118C902.599 20.0029 862.181 22.5 803 22.5V27.5Z" fill="white"/>
</svg>
